# xmcd CD database file
#
# Track frame offsets:
#	150
#	3835
#	10837
#	24375
#	32887
#	41250
#	50887
#	58200
#	67427
#	80440
#	89102
#	89590
#	91490
#	91990
#	102600
#	107147
#	113502
#	118900
#	125037
#	131625
#	135457
#	141017
#	146540
#	153510
#	175345
#
# Disc length: 4436 seconds
#
# Revision: 0
# Processed by: cddbd v1.5.1PL2 Copyright (c) Steve Scherf et al.
# Submitted via: CDex 1.51
#
DISCID=6c115219
DTITLE=CAPCOM - ストリートファイターZERO
DYEAR=1996
DGENRE=Game
TTITLE0=OPENING
TTITLE1=STAGE SAKURA
TTITLE2=STAGE ZANGIEF
TTITLE3=STAGE RYU
TTITLE4=STAGE CHUN-LI
TTITLE5=STAGE SODOM
TTITLE6=STAGE BIRDIE
TTITLE7=STAGE NASH
TTITLE8=STAGE DAN
TTITLE9=STAGE VEGA
TTITLE10=STAGE END
TTITLE11=CONTINUE
TTITLE12=HERE COMES NEW CHALLENGER
TTITLE13=ENDING SAKURA1 SAKURA2
TTITLE14=ENDING ZANGIEF1 ZANGIEF2
TTITLE15=ENDING RYU1 RYU2
TTITLE16=ENDING CHUN-LI
TTITLE17=ENDING SODOM
TTITLE18=ENDING BIRDIE
TTITLE19=ENDING NASH1 NASH2
TTITLE20=ENDING DAN
TTITLE21=ENDING VEGA
TTITLE22=STAFF ROLL1
TTITLE23=STAGE SAGAT VS RYU
TTITLE24=DATA TRACK
EXTD=YEAR: 1996
EXTT0=
EXTT1=
EXTT2=
EXTT3=
EXTT4=
EXTT5=
EXTT6=
EXTT7=
EXTT8=
EXTT9=
EXTT10=
EXTT11=
EXTT12=
EXTT13=
EXTT14=
EXTT15=
EXTT16=
EXTT17=
EXTT18=
EXTT19=
EXTT20=
EXTT21=
EXTT22=
EXTT23=
EXTT24=
PLAYORDER=
